<?xml version="1.0" encoding="UTF-8" standalone="no"?>
<!-- Created with Inkscape (http://www.inkscape.org/) -->

<svg
   xmlns:dc="http://purl.org/dc/elements/1.1/"
   xmlns:cc="http://creativecommons.org/ns#"
   xmlns:rdf="http://www.w3.org/1999/02/22-rdf-syntax-ns#"
   xmlns:svg="http://www.w3.org/2000/svg"
   xmlns="http://www.w3.org/2000/svg"
   xmlns:sodipodi="http://sodipodi.sourceforge.net/DTD/sodipodi-0.dtd"
   xmlns:inkscape="http://www.inkscape.org/namespaces/inkscape"
   width="744.09448819"
   height="1052.3622047"
   id="svg2"
   version="1.1"
   inkscape:version="0.48.0 r9654"
   sodipodi:docname="New document 1">
  <defs
     id="defs4" />
  <sodipodi:namedview
     id="base"
     pagecolor="#ffffff"
     bordercolor="#666666"
     borderopacity="1.0"
     inkscape:pageopacity="0.0"
     inkscape:pageshadow="2"
     inkscape:zoom="0.28433943"
     inkscape:cx="233.88016"
     inkscape:cy="866.13099"
     inkscape:document-units="px"
     inkscape:current-layer="layer1"
     showgrid="false"
     inkscape:window-width="1024"
     inkscape:window-height="600"
     inkscape:window-x="0"
     inkscape:window-y="0"
     inkscape:window-maximized="1" />
  <metadata
     id="metadata7">
    <rdf:RDF>
      <cc:Work
         rdf:about="">
        <dc:format>image/svg+xml</dc:format>
        <dc:type
           rdf:resource="http://purl.org/dc/dcmitype/StillImage" />
        <dc:title></dc:title>
      </cc:Work>
    </rdf:RDF>
  </metadata>
  <g
     inkscape:label="Layer 1"
     inkscape:groupmode="layer"
     id="layer1">
    <rect
       style="fill:#000080"
       id="rect2989"
       width="1202.8572"
       height="645.71429"
       x="-221.14633"
       y="34.990253" />
    <text
       xml:space="preserve"
       style="font-size:72px;font-style:normal;font-weight:normal;line-height:125%;letter-spacing:0px;word-spacing:0px;fill:#ffffff;fill-opacity:1;stroke:none;font-family:Sans"
       x="68.571426"
       y="483.79077"
       id="text2985"
       sodipodi:linespacing="125%"
       inkscape:export-filename="/home/ubuntu/no_lecture.png"
       inkscape:export-xdpi="52.533348"
       inkscape:export-ydpi="52.533348"><tspan
         sodipodi:role="line"
         id="tspan2987"
         x="68.571426"
         y="483.79077">Нет трансляции</tspan></text>
    <path
       style="font-size:medium;font-style:normal;font-variant:normal;font-weight:normal;font-stretch:normal;text-indent:0;text-align:start;text-decoration:none;line-height:normal;letter-spacing:normal;word-spacing:normal;text-transform:none;direction:ltr;block-progression:tb;writing-mode:lr-tb;text-anchor:start;baseline-shift:baseline;color:#000000;fill:none;stroke:#ffffff;stroke-width:5;stroke-miterlimit:4;stroke-opacity:1;stroke-dasharray:none;marker:none;visibility:visible;display:inline;overflow:visible;enable-background:accumulate;font-family:Sans;-inkscape-font-specification:Sans"
       d="m 374.28715,254.59212 c -29.9286,0.1285 -56.7646,25.6335 -58.3938,55.5 -1.1469,14.0444 2.9209,28.4062 11.1964,39.6871 -7.3302,8.1006 -16.3912,15.0118 -22.9096,23.6676 -2.4753,5.9708 4.7275,10.879 10.1045,8.4225 21.3106,-2.1807 42.5307,-5.924 63.8954,-7.1479 21.4962,2.3144 42.9972,5.7331 64.4915,7.4414 5.974,-0.9688 6.9176,-9.5987 1.7482,-12.48 -6.3121,-6.7665 -14.2989,-13.4018 -19.5936,-20.2481 17.038,-22.8973 13.9451,-57.7424 -6.58,-77.2727 -11.4436,-11.5429 -27.664,-18.0765 -43.959,-17.5699 z m 0.3789,12.9879 c 25.0852,-1.3194 48.2972,20.7025 48.2309,45.8883 1.374,25.0923 -20.6845,48.4058 -45.9915,48.2997 -25.1495,1.2567 -48.2809,-20.7949 -48.1965,-45.9916 -1.025,-25.3965 20.4595,-48.0313 45.9571,-48.1964 z"
       id="path5068-5"
       inkscape:connector-curvature="0"
       inkscape:export-filename="/home/ubuntu/no_lecture.png"
       inkscape:export-xdpi="52.533348"
       inkscape:export-ydpi="52.533348" />
    <path
       style="font-size:medium;font-style:normal;font-variant:normal;font-weight:normal;font-stretch:normal;text-indent:0;text-align:start;text-decoration:none;line-height:normal;letter-spacing:normal;word-spacing:normal;text-transform:none;direction:ltr;block-progression:tb;writing-mode:lr-tb;text-anchor:start;baseline-shift:baseline;color:#000000;fill:#ffffff;fill-opacity:1;stroke:none;stroke-width:5;marker:none;visibility:visible;display:inline;overflow:visible;enable-background:accumulate;font-family:Sans;-inkscape-font-specification:Sans"
       d="m 374.95946,285.52048 c -17.20535,-0.0432 -31.50977,17.3987 -27.92626,34.3037 2.47914,16.66997 21.31127,28.29602 37.39415,22.70058 16.02238,-4.47698 25.17825,-24.04372 18.17736,-39.27652 -4.52705,-10.77825 -15.82706,-18.21625 -27.64525,-17.72776 z m 0.78664,10.59174 c 12.89849,-0.57967 22.58502,14.33166 17.1097,25.87518 -4.70459,12.50427 -23.32656,15.22774 -31.40996,4.57949 -8.76778,-9.73472 -3.2224,-27.17788 9.66459,-29.86473 1.51236,-0.39887 3.0743,-0.57274 4.63567,-0.58994 z"
       id="path5070-9"
       inkscape:connector-curvature="0"
       inkscape:export-filename="/home/ubuntu/no_lecture.png"
       inkscape:export-xdpi="52.533348"
       inkscape:export-ydpi="52.533348" />
  </g>
</svg>
